<?xml version="1.0" standalone="no"?>
<!DOCTYPE svg PUBLIC "-//W3C//DTD SVG 20010904//EN"
 "http://www.w3.org/TR/2001/REC-SVG-20010904/DTD/svg10.dtd">
<svg version="1.0" xmlns="http://www.w3.org/2000/svg"
 width="1057.000000pt" height="236.000000pt" viewBox="0 0 1057.000000 236.000000"
 preserveAspectRatio="xMidYMid meet">

<g transform="translate(0.000000,236.000000) scale(0.100000,-0.100000)"
fill="#000000" stroke="none">
<path d="M5150 2030 c-19 -4 -53 -19 -74 -33 -21 -15 -42 -27 -46 -27 -3 0
-17 -22 -30 -50 -20 -43 -23 -64 -22 -155 0 -88 4 -111 21 -139 12 -19 28 -37
37 -40 12 -5 14 -23 12 -103 -3 -96 -3 -98 -28 -101 -14 -2 -29 -8 -35 -13 -5
-5 -17 -9 -26 -9 -9 0 -30 -7 -45 -15 -37 -19 -64 -19 -91 0 -20 14 -28 14
-75 0 -112 -33 -213 -67 -231 -77 -27 -14 -217 -46 -222 -37 -9 13 58 214 87
260 15 25 28 52 28 58 0 22 43 71 62 71 22 0 75 25 100 48 16 14 20 13 44 -12
32 -31 54 -34 54 -5 0 17 5 20 21 16 12 -3 22 0 25 8 8 21 -33 105 -50 105
-35 0 -10 32 34 45 38 11 54 26 38 36 -15 10 -61 4 -128 -16 -25 -7 -57 -16
-71 -19 -14 -3 -37 -16 -50 -28 -14 -13 -46 -40 -71 -61 -67 -53 -235 -291
-328 -462 -24 -44 -54 -99 -67 -123 -24 -43 -24 -43 -6 -75 11 -18 42 -45 73
-62 54 -29 59 -30 224 -35 l169 -5 17 -30 c15 -27 23 -31 78 -36 123 -12 159
-72 173 -292 6 -78 7 -204 3 -280 l-6 -137 438 2 439 3 -3 25 c-2 14 -4 84 -5
155 -1 108 1 136 16 165 23 44 53 133 62 185 10 60 39 108 83 139 33 22 46 26
76 20 33 -6 40 -3 70 29 23 25 37 33 47 26 24 -15 210 -10 270 7 93 27 139 53
139 79 0 45 -101 266 -155 340 -12 17 -46 71 -75 120 -56 97 -219 275 -252
275 -10 0 -38 15 -63 34 -45 35 -96 53 -115 41 -20 -12 -9 -34 25 -51 47 -22
51 -31 27 -57 -46 -51 -57 -107 -21 -107 12 0 27 -8 34 -17 11 -15 17 -15 40
-5 23 11 30 10 45 -3 9 -8 37 -22 62 -31 36 -12 52 -25 77 -63 17 -27 31 -54
31 -60 0 -5 6 -25 14 -43 16 -35 62 -190 68 -223 2 -14 -2 -19 -12 -17 -113
27 -186 51 -259 87 -118 58 -179 75 -276 75 -46 0 -86 5 -92 11 -6 6 -35 19
-65 29 -45 15 -54 22 -62 50 -12 40 6 156 26 173 35 30 40 50 44 154 l4 108
-40 62 c-32 50 -49 66 -92 86 -64 29 -101 36 -148 27z"/>
</g>
</svg>
